<?xml version="1.0" encoding="UTF-8"?>
<svg xmlns="http://www.w3.org/2000/svg" xmlns:xlink="http://www.w3.org/1999/xlink" viewBox="0 0 1080 368.26">
  <defs>
    <style>
      .cls-1 {
        fill: #fff;
      }

      .cls-2 {
        fill: #cfe6ff;
      }

      .cls-3 {
        fill: none;
      }

      .cls-4 {
        fill: #eaa80f;
      }

      .cls-5 {
        isolation: isolate;
      }

      .cls-6 {
        fill: #666;
      }

      .cls-7 {
        mix-blend-mode: multiply;
      }

      .cls-7, .cls-8 {
        fill: #0263e2;
      }

      .cls-9 {
        fill: #3b935d;
      }

      .cls-10 {
        fill: #e63b2d;
      }

      .cls-11 {
        clip-path: url(#clippath);
      }
    </style>
    <clipPath id="clippath">
      <path class="cls-3" d="M1080,0v218.26l-50.29,50.29h-200.31c-37.01,37.01-60.35,60.35-99.71,99.71H0v-125.01c23.08-23.1,36.04-36.04,59.12-59.12l311.11,3.22L471.51,3.22,1080,0Z"/>
    </clipPath>
  </defs>
  <g class="cls-5">
    <g id="Capa_1" data-name="Capa 1">
      <rect class="cls-1" x="-45.33" y="-50.94" width="1189.33" height="1326.22"/>
      <g>
        <g>
          <rect class="cls-9" x="242.33" y="106.04" width="10.84" height="10.84" rx="1.9" ry="1.9"/>
          <rect class="cls-8" x="257.47" y="106.04" width="10.84" height="10.84" rx="1.9" ry="1.9"/>
          <rect class="cls-4" x="272.62" y="106.04" width="10.84" height="10.84" rx="1.9" ry="1.9"/>
          <rect class="cls-10" x="287.77" y="106.04" width="10.84" height="10.84" rx="1.9" ry="1.9"/>
          <path class="cls-6" d="M267.96,98.9v1.63c0,.23-.18.41-.41.41h-29.67c-.23,0-.41-.18-.41-.41v-1.66c0-.25.1-.49.27-.68l21.63-22.9c2.53-2.84,4.06-5.64,4.53-8.71,1.08-6.97-3.84-13.54-10.87-14.11-6.97-.56-12.81,4.8-13.03,11.59,0,.22-.18.4-.4.4h-1.7c-.23,0-.42-.19-.42-.42.23-8.08,7.05-14.52,15.29-14.12,8.67.42,15.09,8.59,13.62,17.14-.63,3.65-2.56,6.86-5.23,9.92l-19.65,20.81c-.25.26-.06.69.3.69h25.76c.23,0,.41.18.41.41ZM129.9,152.44v10.86c0,.25.14.4.4.4h1.5c.25,0,.4-.14.4-.4v-10.86c0-.25-.14-.4-.4-.4h-1.5c-.25,0-.4.14-.4.4ZM144.96,152.44v6.81l-4.37-6.95c-.11-.17-.28-.25-.49-.25h-1.04c-.25,0-.4.14-.4.4v10.86c0,.25.14.4.4.4h1.5c.25,0,.4-.14.4-.4v-6.81l4.37,6.95c.11.17.28.25.49.25h1.04c.25,0,.4-.14.4-.4v-10.86c0-.25-.14-.4-.4-.4h-1.5c-.25,0-.4.14-.4.4ZM160.37,152.04h-7.12c-.25,0-.4.14-.4.4v1.41c0,.25.14.4.4.4h2.41v9.06c0,.25.14.4.4.4h1.5c.25,0,.4-.14.4-.4v-9.06h2.41c.25,0,.4-.14.4-.4v-1.41c0-.25-.14-.4-.4-.4ZM172.88,161.5h-4.22v-2.62h3.73c.25,0,.4-.14.4-.4v-1.36c0-.25-.14-.4-.4-.4h-3.73v-2.49h4.14c.25,0,.4-.14.4-.4v-1.41c0-.25-.14-.4-.4-.4h-6.04c-.25,0-.4.14-.4.4v10.86c0,.25.14.4.4.4h6.12c.25,0,.4-.14.4-.4v-1.41c0-.25-.14-.4-.4-.4ZM188.53,163.21l-3.2-3.93c1.29-.62,2.18-1.92,2.18-3.36,0-2.14-1.73-3.87-3.87-3.87h-4.02c-.25,0-.4.14-.4.4v10.86c0,.25.14.4.4.4h1.5c.25,0,.4-.14.4-.4v-3.64h1.42l3.1,3.8c.13.17.29.23.49.23h1.76c.33,0,.44-.24.23-.49h0ZM181.51,154.19h2.12c.87,0,1.58.75,1.58,1.72s-.71,1.72-1.58,1.72h-2.12v-3.45ZM200.31,152.44v6.81l-4.37-6.95c-.11-.17-.28-.25-.49-.25h-1.04c-.25,0-.4.14-.4.4v10.86c0,.25.14.4.4.4h1.5c.25,0,.4-.14.4-.4v-6.81l4.37,6.95c.11.17.28.25.49.25h1.04c.25,0,.4-.14.4-.4v-10.86c0-.25-.14-.4-.4-.4h-1.5c-.25,0-.4.14-.4.4ZM218.66,163.25l-3.7-10.88c-.07-.22-.24-.33-.46-.33h-2.16c-.22,0-.39.11-.46.33l-3.7,10.88c-.1.28.04.45.33.45h1.67c.22,0,.38-.1.45-.33l.56-1.76h4.47l.56,1.76c.07.23.22.33.45.33h1.67c.29,0,.42-.16.33-.45h0ZM211.87,159.46l1.55-4.87,1.55,4.87h-3.1ZM230.05,152.04h-7.12c-.25,0-.4.14-.4.4v1.41c0,.25.14.4.4.4h2.41v9.06c0,.25.14.4.4.4h1.5c.25,0,.4-.14.4-.4v-9.06h2.41c.25,0,.4-.14.4-.4v-1.41c0-.25-.14-.4-.4-.4ZM236.04,152.44v10.86c0,.25.14.4.4.4h1.5c.25,0,.4-.14.4-.4v-10.86c0-.25-.14-.4-.4-.4h-1.5c-.25,0-.4.14-.4.4ZM250.33,163.92c3.36,0,6.05-2.65,6.05-6.05s-2.69-6.05-6.05-6.05-6.05,2.65-6.05,6.05,2.69,6.05,6.05,6.05ZM250.33,161.69c-2.11,0-3.76-1.58-3.76-3.82s1.65-3.82,3.76-3.82,3.76,1.58,3.76,3.82-1.65,3.82-3.76,3.82ZM268.6,152.44v6.81l-4.37-6.95c-.11-.17-.28-.25-.49-.25h-1.04c-.25,0-.4.14-.4.4v10.86c0,.25.14.4.4.4h1.5c.25,0,.4-.14.4-.4v-6.81l4.37,6.95c.11.17.28.25.49.25h1.04c.25,0,.4-.14.4-.4v-10.86c0-.25-.14-.4-.4-.4h-1.5c-.25,0-.4.14-.4.4ZM286.96,163.25l-3.7-10.88c-.07-.22-.24-.33-.46-.33h-2.16c-.22,0-.39.11-.46.33l-3.7,10.88c-.1.28.04.45.33.45h1.67c.22,0,.38-.1.45-.33l.56-1.76h4.47l.56,1.76c.07.23.22.33.45.33h1.67c.29,0,.42-.16.33-.45h0ZM280.17,159.46l1.55-4.87,1.55,4.87h-3.1ZM298.78,161.5h-3.93v-9.06c0-.25-.14-.4-.4-.4h-1.5c-.25,0-.4.14-.4.4v10.86c0,.25.14.4.4.4h5.83c.25,0,.4-.14.4-.4v-1.41c0-.25-.14-.4-.4-.4ZM141.26,99.14v-47.82c0-1.07-.87-1.94-1.94-1.94h-7.48c-1.07,0-1.94.87-1.94,1.94v47.82c0,1.07.87,1.94,1.94,1.94h7.48c1.07,0,1.94-.87,1.94-1.94ZM229.48,118.94c.71.8.64,2.03-.15,2.74l-5.58,4.98c-.79.71-2.02.64-2.73-.15l-4.32-4.83c-3.31,1.57-7.02,2.44-10.93,2.44-13.44,0-24.46-10.34-25.53-23.5-2.53.82-5.23,1.27-8.04,1.27-14.97,0-26.98-12.65-25.93-27.83.88-12.66,11.03-22.99,23.68-24.05,12.76-1.07,23.8,7.09,27.17,18.54.18.61-.27,1.23-.91,1.23h-9.64c-.36,0-.69-.21-.85-.54-2.45-4.99-7.59-8.42-13.53-8.42-8.58,0-15.5,7.17-15.08,15.85.38,7.79,6.87,14.12,14.66,14.33,4.6.12,8.34-1.61,11.18-4.76.37-.41,1.21-1.26,1.76-2.07,2.15-3.2,4.94-5.96,8.28-7.88,1.6-.92,3.31-1.67,5.11-2.23,2.59-.81,5.35-1.22,8.23-1.16,13.4.29,24.48,11.14,25.03,24.53.27,6.55-1.92,12.57-5.72,17.24l3.84,4.29ZM208.95,113.02l-3.75-4.2c-.71-.8-.64-2.03.15-2.74l5.57-4.98c.8-.71,2.03-.64,2.74.15l4.65,5.2c1.47-2.3,2.33-5.04,2.33-7.97,0-8.21-6.66-14.87-14.88-14.87-4.16,0-7.92,1.7-10.62,4.46-1.27,1.3-2.3,2.82-3.04,4.5-.78,1.81-1.22,3.81-1.22,5.91,0,8.22,6.66,14.88,14.88,14.88,1.1,0,2.16-.12,3.19-.35ZM298.32,87.72h-6.21c-.16,0-.28-.13-.28-.28v-15.3c0-.16-.13-.28-.28-.28h-1.89c-.16,0-.28.13-.28.28v15.3c0,.16-.13.28-.28.28h-22.96c-.21,0-.35-.22-.25-.41l18.32-35.9c.1-.19-.04-.41-.25-.41l-2.11-.02c-.11,0-.21.06-.26.15l-18.56,36.39c-.07.13-.1.28-.1.42v1.72c0,.28.22.5.49.5h25.68c.16,0,.28.13.28.28v10.21c0,.16.13.28.28.28h1.89c.16,0,.28-.13.28-.28v-10.21c0-.16.13-.28.28-.28h6.21c.16,0,.28-.13.28-.28v-1.88c0-.16-.13-.28-.28-.28Z"/>
        </g>
        <g class="cls-11">
          <image width="3748" height="2500" transform="translate(1080 -57.79) rotate(-180) scale(.29 -.29)" xlink:href="../../../Downloads/university-hallway-portrait-indian-man-students-standing-row-together-with-books-business-school-friends-education-future-happy-man-study-group-campus-lobby-exam.jpg"/>
          <rect class="cls-7" x="-24.22" y="-303.88" width="1128.43" height="887.84"/>
        </g>
        <polygon class="cls-2" points="1080 256.98 1080 367.2 767.43 367.2 844.63 290 1042.76 290 1080 256.98"/>
      </g>
    </g>
  </g>
</svg>