<?xml version="1.0" encoding="UTF-8"?>
<svg xmlns="http://www.w3.org/2000/svg" xmlns:xlink="http://www.w3.org/1999/xlink" viewBox="0 0 1080 423.87">
  <defs>
    <style>
      .cls-1, .cls-2, .cls-3, .cls-4, .cls-5, .cls-6, .cls-7, .cls-8, .cls-9, .cls-10, .cls-11, .cls-12, .cls-13, .cls-14, .cls-15, .cls-16 {
        font-family: Montserrat-Regular, Montserrat;
      }

      .cls-1, .cls-17 {
        letter-spacing: -.01em;
      }

      .cls-18 {
        letter-spacing: -.04em;
      }

      .cls-18, .cls-19, .cls-20, .cls-21, .cls-22, .cls-23, .cls-24, .cls-25, .cls-26 {
        font-family: Montserrat-Bold, Montserrat;
        font-weight: 700;
      }

      .cls-2 {
        letter-spacing: -.03em;
      }

      .cls-27, .cls-25 {
        letter-spacing: 0em;
      }

      .cls-28, .cls-21 {
        letter-spacing: 0em;
      }

      .cls-3, .cls-29 {
        letter-spacing: -.02em;
      }

      .cls-19 {
        letter-spacing: 0em;
      }

      .cls-30 {
        letter-spacing: 0em;
      }

      .cls-31, .cls-16 {
        letter-spacing: 0em;
      }

      .cls-5 {
        letter-spacing: -.04em;
      }

      .cls-32, .cls-9 {
        letter-spacing: 0em;
      }

      .cls-33 {
        letter-spacing: -.02em;
      }

      .cls-6, .cls-34 {
        letter-spacing: 0em;
      }

      .cls-20 {
        letter-spacing: -.03em;
      }

      .cls-35 {
        fill: #fff;
      }

      .cls-7 {
        letter-spacing: -.03em;
      }

      .cls-36 {
        letter-spacing: -.02em;
      }

      .cls-37 {
        fill: none;
      }

      .cls-8 {
        letter-spacing: 0em;
      }

      .cls-38 {
        font-family: Montserrat-MediumItalic, Montserrat;
        font-style: italic;
        font-weight: 500;
      }

      .cls-38, .cls-39, .cls-15 {
        fill: #666;
        font-size: 25px;
      }

      .cls-10 {
        letter-spacing: -.01em;
      }

      .cls-40 {
        isolation: isolate;
      }

      .cls-11 {
        letter-spacing: -.04em;
      }

      .cls-22 {
        letter-spacing: -.03em;
      }

      .cls-41 {
        letter-spacing: 0em;
      }

      .cls-42 {
        mix-blend-mode: multiply;
      }

      .cls-42, .cls-43 {
        fill: #0263e2;
      }

      .cls-44 {
        letter-spacing: .02em;
      }

      .cls-12, .cls-45 {
        letter-spacing: -.02em;
      }

      .cls-13 {
        letter-spacing: 0em;
      }

      .cls-14 {
        letter-spacing: -.04em;
      }

      .cls-46 {
        letter-spacing: -.01em;
      }

      .cls-23 {
        letter-spacing: -.03em;
      }

      .cls-47 {
        letter-spacing: -.02em;
      }

      .cls-48 {
        letter-spacing: -.01em;
      }

      .cls-49 {
        letter-spacing: -.01em;
      }

      .cls-50 {
        clip-path: url(#clippath);
      }

      .cls-51 {
        letter-spacing: 0em;
      }

      .cls-26 {
        letter-spacing: -.04em;
      }
    </style>
    <clipPath id="clippath">
      <path class="cls-37" d="M1080-368.26v218.26l-50.29,50.29h-200.31c-37.01,37.01-60.35,60.35-99.71,99.71H0v-125.01c23.08-23.1,36.04-36.04,59.12-59.12l311.11,3.22,101.28-184.13,608.49-3.22Z"/>
    </clipPath>
  </defs>
  <g class="cls-40">
    <g id="Capa_1" data-name="Capa 1">
      <rect class="cls-35" x="-45.33" y="-419.19" width="1189.33" height="1326.22"/>
      <text class="cls-39" transform="translate(158.18 71.59) scale(1.03 1)"><tspan class="cls-16" x="0" y="0">E</tspan><tspan class="cls-4" x="16.52" y="0" xml:space="preserve">quipo  </tspan><tspan class="cls-24" x="102.72" y="0">I</tspan><tspan class="cls-20" x="110.92" y="0">C</tspan><tspan class="cls-21" x="128.25" y="0">Q2</tspan><tspan class="cls-24" x="163.6" y="0">4</tspan><tspan class="cls-4" x="180.82" y="0">,</tspan><tspan class="cls-4" x="0" y="60">Nuest</tspan><tspan class="cls-10" x="74.57" y="60">r</tspan><tspan class="cls-4" x="84.27" y="60">o</tspan><tspan class="cls-5" x="99.95" y="60"> </tspan><tspan class="cls-9" x="105.56" y="60">c</tspan><tspan class="cls-4" x="119.41" y="60">om</tspan><tspan class="cls-8" x="161.61" y="60">p</tspan><tspan class="cls-4" x="178.49" y="60">añe</tspan><tspan class="cls-1" x="225.23" y="60">r</tspan><tspan class="cls-13" x="234.94" y="60">o</tspan><tspan class="cls-14" x="250.61" y="60"> </tspan><tspan class="cls-24" x="256.22" y="60">José</tspan><tspan class="cls-26" x="315.17" y="60"> </tspan><tspan class="cls-24" x="321.23" y="60">D</tspan><tspan class="cls-21" x="341.88" y="60">a</tspan><tspan class="cls-24" x="357.06" y="60">vid</tspan><tspan class="cls-5" x="396.83" y="60"> </tspan><tspan class="cls-4" x="402.44" y="60">se</tspan><tspan class="cls-5" x="429.74" y="60"> </tspan><tspan class="cls-4" x="435.35" y="60">encuent</tspan><tspan class="cls-11" x="540.38" y="60">r</tspan><tspan class="cls-4" x="549.38" y="60">a</tspan><tspan class="cls-5" x="564.13" y="60"> </tspan><tspan class="cls-4" x="569.74" y="60">desa</tspan><tspan class="cls-6" x="628.74" y="60">r</tspan><tspan class="cls-10" x="638.56" y="60">r</tspan><tspan class="cls-4" x="648.26" y="60">ollando </tspan><tspan class="cls-4" x="0" y="90">su</tspan><tspan class="cls-2" x="29" y="90"> </tspan><tspan class="cls-24" x="34.92" y="90">t</tspan><tspan class="cls-18" x="45.79" y="90">r</tspan><tspan class="cls-24" x="55.59" y="90">a</tspan><tspan class="cls-25" x="71.02" y="90">b</tspan><tspan class="cls-24" x="88.04" y="90">ajo</tspan><tspan class="cls-23" x="127.52" y="90"> </tspan><tspan class="cls-24" x="133.91" y="90">de</tspan><tspan class="cls-22" x="166.99" y="90"> </tspan><tspan class="cls-24" x="173.38" y="90">g</tspan><tspan class="cls-18" x="190.88" y="90">r</tspan><tspan class="cls-19" x="200.68" y="90">a</tspan><tspan class="cls-24" x="216.21" y="90">do</tspan><tspan class="cls-23" x="249.88" y="90"> </tspan><tspan class="cls-4" x="256.28" y="90">y</tspan><tspan class="cls-2" x="269.83" y="90"> </tspan><tspan class="cls-4" x="275.75" y="90">ha</tspan><tspan class="cls-2" x="307.4" y="90"> </tspan><tspan class="cls-4" x="313.32" y="90">soli</tspan><tspan class="cls-16" x="354.64" y="90">c</tspan><tspan class="cls-9" x="368.52" y="90">i</tspan><tspan class="cls-3" x="375.02" y="90">t</tspan><tspan class="cls-4" x="384.67" y="90">ado</tspan><tspan class="cls-2" x="432.04" y="90"> </tspan><tspan class="cls-4" x="437.96" y="90">el</tspan><tspan class="cls-7" x="459.79" y="90"> </tspan><tspan class="cls-4" x="465.71" y="90">ap</tspan><tspan class="cls-12" x="497.41" y="90">oy</tspan><tspan class="cls-4" x="525.88" y="90">o</tspan><tspan class="cls-2" x="541.55" y="90"> </tspan><tspan class="cls-4" x="547.47" y="90">del</tspan><tspan class="cls-2" x="586.25" y="90"> </tspan><tspan class="cls-4" x="592.17" y="90">equipo</tspan><tspan class="cls-2" x="680.37" y="90"> </tspan><tspan class="cls-8" x="686.29" y="90">p</tspan><tspan class="cls-4" x="703.16" y="90">a</tspan><tspan class="cls-11" x="717.91" y="90">r</tspan><tspan class="cls-4" x="726.91" y="90">a </tspan><tspan class="cls-4"><tspan class="cls-27" x="0" y="120">c</tspan><tspan x="13.85" y="120">omple</tspan><tspan class="cls-29" x="94.82" y="120">t</tspan><tspan x="104.47" y="120">ar un b</tspan><tspan class="cls-17" x="193" y="120">r</tspan><tspan class="cls-28" x="202.7" y="120">e</tspan><tspan class="cls-45" x="217.55" y="120">v</tspan><tspan x="230.72" y="120">e </tspan><tspan class="cls-32" x="252.37" y="120">f</tspan><tspan x="260.62" y="120">o</tspan><tspan class="cls-31" x="276.3" y="120">r</tspan><tspan x="286.12" y="120">mula</tspan><tspan class="cls-34" x="350.92" y="120">r</tspan><tspan x="360.75" y="120">i</tspan><tspan class="cls-45" x="367.47" y="120">o</tspan><tspan x="382.77" y="120">.</tspan></tspan></text>
      <text class="cls-38" transform="translate(285.91 261.05) scale(1.03 1)"><tspan class="cls-51" x="0" y="0">L</tspan><tspan x="14.68" y="0">a encues</tspan><tspan class="cls-33" x="129.75" y="0">t</tspan><tspan x="139.72" y="0">a </tspan><tspan class="cls-36" x="163.5" y="0">t</tspan><tspan x="173.47" y="0">oma solo unos minu</tspan><tspan class="cls-33" x="433.95" y="0">t</tspan><tspan x="443.92" y="0">os y su </tspan><tspan x="0" y="30">pa</tspan><tspan class="cls-44" x="34.1" y="30">r</tspan><tspan x="44.72" y="30">ti</tspan><tspan class="cls-30" x="62.12" y="30">c</tspan><tspan x="76.22" y="30">ipa</tspan><tspan class="cls-51" x="117.3" y="30">c</tspan><tspan x="131.4" y="30">ión se</tspan><tspan class="cls-46" x="205.8" y="30">r</tspan><tspan x="215.75" y="30">á de g</tspan><tspan class="cls-48" x="295.82" y="30">r</tspan><tspan x="305.77" y="30">an </tspan><tspan class="cls-49" x="346.57" y="30">v</tspan><tspan x="360.17" y="30">alor pa</tspan><tspan class="cls-48" x="451.14" y="30">r</tspan><tspan x="461.09" y="30">a el </tspan><tspan x="0" y="60">desa</tspan><tspan class="cls-51" x="61.9" y="60">r</tspan><tspan class="cls-48" x="71.97" y="60">r</tspan><tspan x="81.92" y="60">ollo de su p</tspan><tspan class="cls-46" x="226.62" y="60">r</tspan><tspan class="cls-45" x="236.57" y="60">oy</tspan><tspan x="265.67" y="60">e</tspan><tspan class="cls-41" x="280.95" y="60">c</tspan><tspan class="cls-36" x="295.4" y="60">t</tspan><tspan class="cls-48" x="305.37" y="60">o</tspan><tspan x="320.95" y="60">.</tspan></text>
      <text class="cls-15" transform="translate(158.18 398.79) scale(1.03 1)"><tspan x="0" y="0">Pueden a</tspan><tspan class="cls-27" x="120.1" y="0">cc</tspan><tspan x="147.8" y="0">eder al </tspan><tspan class="cls-32" x="239.55" y="0">f</tspan><tspan x="247.8" y="0">o</tspan><tspan class="cls-31" x="263.47" y="0">r</tspan><tspan x="273.3" y="0">mula</tspan><tspan class="cls-34" x="338.1" y="0">r</tspan><tspan x="347.92" y="0">io en el siguien</tspan><tspan class="cls-47" x="535.37" y="0">t</tspan><tspan x="545.04" y="0">e enla</tspan><tspan class="cls-27" x="620.17" y="0">c</tspan><tspan x="634.02" y="0">e:</tspan></text>
      <g class="cls-50">
        <image width="3748" height="2500" transform="translate(1080 -426.05) rotate(-180) scale(.29 -.29)" xlink:href="../../../Downloads/university-hallway-portrait-indian-man-students-standing-row-together-with-books-business-school-friends-education-future-happy-man-study-group-campus-lobby-exam.jpg"/>
        <rect class="cls-42" x="-24.22" y="-672.14" width="1128.43" height="887.84"/>
      </g>
      <path class="cls-43" d="M258.21,285.62c-.25,1.83-.44,3.67-.75,5.49-1.31,7.59-4.22,14.51-8.73,20.76-4.79,6.64-10.85,11.82-18.15,15.51-3.93,1.99-8.07,3.43-12.39,4.31-1.65.34-2.84-.28-3.13-1.54-.32-1.4.48-2.54,2.09-2.98.16-.04.31-.09.47-.13,7.4-1.56,14.01-4.75,19.8-9.61,5.35-4.48,9.45-9.92,12.29-16.3,3.2-7.19,4.45-14.74,3.74-22.56-.85-9.4-4.34-17.77-10.43-24.99-7.26-8.62-16.48-13.98-27.61-15.76-11.97-1.92-23.07.59-33.02,7.52-10.52,7.33-17.01,17.4-19.04,30.06-2.19,13.64,1.28,25.9,10.14,36.5,7.16,8.56,16.37,13.74,27.38,15.6,2.4.4,4.85.44,7.29.64,1.71.14,2.58,1.3,2.18,2.94-.25,1.03-1.1,1.59-2.5,1.58-4.35-.03-8.65-.52-12.81-1.79-18.35-5.6-30.48-17.57-35.27-36.15-7.04-27.28,10.16-54.72,37.71-60.87,2.28-.51,4.62-.69,6.94-1.03.29-.04.57-.11.85-.17,1.95,0,3.91,0,5.86,0,.71.08,1.41.16,2.12.24,9.74,1.09,18.5,4.59,26.12,10.76,9.78,7.92,15.86,18.08,18.08,30.49.33,1.85.51,3.72.77,5.58v5.86ZM184.6,255.06c6.08-5.25,13.18-8.13,21.3-8.71,0,1.34-.01,2.54,0,3.74,0,.45.04.91.12,1.36.15.85.68,1.37,1.52,1.57,1.72.41,2.87-.57,2.91-2.52.04-1.92.01-3.84,0-5.76,0-2.25-.77-2.97-3-2.93-6.11.11-11.91,1.5-17.37,4.26-9.23,4.67-15.85,11.8-19.81,21.33-3.02,7.24-3.75,14.78-2.35,22.49,1.8,9.94,6.73,18.1,14.49,24.49,6.34,5.21,13.65,8.27,21.85,9.03,9.84.91,18.87-1.44,27-7.02,6.28-4.31,11.06-9.95,14.16-16.93,5.05-11.35,4.92-22.74-.22-34-3.69-8.09-9.61-14.23-17.38-18.56-3.14-1.75-6.47-3.03-9.95-3.91-1.09-.27-2.25.22-2.7,1.07-.41.77-.18,2.04.57,2.68.33.28.78.43,1.2.59,2.72,1.06,5.59,1.84,8.14,3.21,9.7,5.2,15.85,13.26,18.52,23.93.48,1.9.68,3.87,1.03,5.93-.77,0-1.31,0-1.86,0-1.04.02-2.09-.01-3.12.1-1.22.13-1.92,1-1.92,2.18,0,1.18.7,2.05,1.91,2.18,1,.11,2.01.08,3.02.1.53.01,1.07,0,1.61,0-1.26,18.97-16.62,32.88-33.82,33.78,0-.39,0-.77,0-1.14-.03-1.17.01-2.35-.12-3.5-.15-1.31-1.2-2.01-2.51-1.8-1.31.2-1.9.97-1.94,2.59-.03,1.29,0,2.58,0,3.88-19.43-1.18-33.18-17.43-33.74-33.8.55,0,1.1.01,1.64,0,1.04-.03,2.08-.03,3.11-.13.86-.09,1.38-.66,1.59-1.5.41-1.68-.53-2.86-2.4-2.93-1.39-.05-2.78,0-4.29,0,.85-10.27,5.09-18.71,12.78-25.35ZM210.39,270.27c0-2.05.08-4.1-.03-6.14-.07-1.32-1.18-2.02-2.48-1.83-1.35.2-1.95.99-1.96,2.67-.02,3.45-.02,6.9,0,10.35,0,.69-.13,1.06-.84,1.39-3.2,1.5-4.57,5.41-3.15,8.73,1.37,3.2,5.08,4.87,8.35,3.68.65-.24,1.04-.14,1.52.35,4.12,4.16,8.27,8.3,12.42,12.44.28.28.55.56.87.78,1.12.77,2.5.46,3.2-.69.62-1.02.4-1.99-.72-3.12-4.21-4.21-8.42-8.43-12.64-12.62-.41-.41-.56-.74-.34-1.35,1.2-3.34-.26-6.71-3.5-8.34-.29-.14-.57-.6-.58-.92-.06-1.79-.03-3.58-.03-5.37-.03,0-.06,0-.09,0ZM208.18,284.94c-1.32,0-2.26-.97-2.23-2.29.02-1.29.93-2.19,2.21-2.21,1.32-.02,2.28.92,2.28,2.24,0,1.32-.94,2.27-2.26,2.26ZM221.86,255.35c-.03,1.24,1.04,2.33,2.26,2.31,1.19-.01,2.23-1.07,2.23-2.26,0-1.21-1.01-2.23-2.22-2.24-1.23-.01-2.24.96-2.27,2.19ZM190.03,255.42c0,1.19,1.05,2.24,2.23,2.25,1.23.01,2.29-1.07,2.26-2.31-.03-1.22-1.05-2.2-2.27-2.19-1.21.02-2.23,1.04-2.22,2.25ZM180.87,269.02c1.24.02,2.32-1.05,2.3-2.27-.02-1.19-1.08-2.23-2.26-2.22-1.21,0-2.23,1.02-2.24,2.23,0,1.22.98,2.24,2.2,2.26ZM235.54,264.53c-1.22-.04-2.33,1.03-2.33,2.25,0,1.19,1.03,2.23,2.24,2.24,1.22.01,2.23-.98,2.26-2.2.03-1.22-.95-2.25-2.17-2.29ZM178.68,298.54c-.03,1.25,1.01,2.32,2.25,2.32,1.18,0,2.24-1.06,2.25-2.24,0-1.19-1.02-2.23-2.22-2.26-1.22-.02-2.24.96-2.28,2.18ZM226.36,309.96c0-1.19-1.05-2.24-2.24-2.25-1.22,0-2.29,1.09-2.26,2.32.04,1.22,1.05,2.19,2.28,2.17,1.22-.02,2.22-1.04,2.21-2.25ZM235.48,296.36c-1.19,0-2.24,1.01-2.27,2.21-.03,1.22,1.06,2.31,2.29,2.29,1.21-.02,2.21-1.04,2.21-2.26,0-1.22-1.01-2.23-2.23-2.23ZM194.52,310.02c.03-1.23-1.03-2.33-2.26-2.32-1.18.01-2.23,1.06-2.24,2.25,0,1.21,1,2.23,2.22,2.25,1.23.02,2.24-.96,2.28-2.18Z"/>
    </g>
  </g>
</svg>